# This file uses centimeters as units for non-parametric coordinates.

mtllib PipeAttachmentToBox.mtl
g default
v 0.612663 13.012488 1.795886
v 0.527625 13.012488 1.628988
v 0.395174 13.012488 1.496537
v 0.228276 13.012488 1.411498
v 0.043268 13.012488 1.382196
v -0.141740 13.012488 1.411498
v -0.308638 13.012488 1.496537
v -0.441089 13.012488 1.628988
v -0.526128 13.012488 1.795886
v -0.555430 13.012488 1.980894
v -0.526128 13.012488 2.165902
v -0.441089 13.012488 2.332800
v -0.308638 13.012488 2.465251
v -0.141740 13.012488 2.550289
v 0.043268 13.012488 2.579592
v 0.228276 13.012488 2.550289
v 0.395173 13.012488 2.465250
v 0.527624 13.012488 2.332800
v 0.612663 13.012488 2.165902
v 0.641965 13.012488 1.980894
v 0.612663 24.247700 1.795886
v 0.527625 24.247700 1.628988
v 0.395174 24.247700 1.496537
v 0.228276 24.247700 1.411498
v 0.043268 24.247700 1.382196
v -0.141740 24.247700 1.411498
v -0.308638 24.247700 1.496537
v -0.441089 24.247700 1.628988
v -0.526128 24.247700 1.795886
v -0.555430 24.247700 1.980894
v -0.526128 24.247700 2.165902
v -0.441089 24.247700 2.332800
v -0.308638 24.247700 2.465251
v -0.141740 24.247700 2.550289
v 0.043268 24.247700 2.579592
v 0.228276 24.247700 2.550289
v 0.395173 24.247700 2.465250
v 0.527624 24.247700 2.332800
v 0.612663 24.247700 2.165902
v 0.641965 24.247700 1.980894
v 0.528702 13.141936 1.976863
v 0.504863 13.141936 1.826352
v 0.435680 13.141936 1.690573
v 0.327926 13.141936 1.582818
v 0.192147 13.141936 1.513636
v 0.041636 13.141936 1.489797
v -0.108876 13.141936 1.513636
v -0.244655 13.141936 1.582818
v -0.352409 13.141936 1.690573
v -0.421592 13.141936 1.826352
v -0.445431 13.141936 1.976863
v -0.421592 13.141936 2.127375
v -0.352409 13.141936 2.263154
v -0.244655 13.141936 2.370908
v -0.108876 13.141936 2.440091
v 0.041636 13.141936 2.463930
v 0.192147 13.141936 2.440091
v 0.327926 13.141936 2.370908
v 0.435681 13.141936 2.263154
v 0.504863 13.141936 2.127375
v 1.028702 13.141936 1.976863
v 0.980391 13.141936 1.671843
v 0.840189 13.141936 1.396680
v 0.621819 13.141936 1.178310
v 0.346656 13.141936 1.038107
v 0.041636 13.141936 0.989797
v -0.263385 13.141936 1.038107
v -0.538548 13.141936 1.178310
v -0.756918 13.141936 1.396680
v -0.897120 13.141936 1.671843
v -0.945431 13.141936 1.976863
v -0.897120 13.141936 2.281884
v -0.756918 13.141936 2.557046
v -0.538548 13.141936 2.775417
v -0.263385 13.141936 2.915619
v 0.041636 13.141936 2.963930
v 0.346656 13.141936 2.915619
v 0.621819 13.141936 2.775417
v 0.840189 13.141936 2.557046
v 0.980392 13.141936 2.281884
v 1.028702 12.418489 1.976863
v 0.980391 12.418489 1.671843
v 0.840189 12.418489 1.396680
v 0.621819 12.418489 1.178310
v 0.346656 12.418489 1.038107
v 0.041636 12.418489 0.989797
v -0.263385 12.418489 1.038107
v -0.538548 12.418489 1.178310
v -0.756918 12.418489 1.396680
v -0.897120 12.418489 1.671843
v -0.945431 12.418489 1.976863
v -0.897120 12.418489 2.281884
v -0.756918 12.418489 2.557046
v -0.538548 12.418489 2.775417
v -0.263385 12.418489 2.915619
v 0.041636 12.418489 2.963930
v 0.346656 12.418489 2.915619
v 0.621819 12.418489 2.775417
v 0.840189 12.418489 2.557046
v 0.980392 12.418489 2.281884
vt 0.375000 0.312500
vt 0.387500 0.312500
vt 0.400000 0.312500
vt 0.412500 0.312500
vt 0.425000 0.312500
vt 0.437500 0.312500
vt 0.450000 0.312500
vt 0.462500 0.312500
vt 0.475000 0.312500
vt 0.487500 0.312500
vt 0.500000 0.312500
vt 0.512500 0.312500
vt 0.525000 0.312500
vt 0.537500 0.312500
vt 0.550000 0.312500
vt 0.562500 0.312500
vt 0.575000 0.312500
vt 0.587500 0.312500
vt 0.600000 0.312500
vt 0.612500 0.312500
vt 0.625000 0.312500
vt 0.375000 0.688440
vt 0.387500 0.688440
vt 0.400000 0.688440
vt 0.412500 0.688440
vt 0.425000 0.688440
vt 0.437500 0.688440
vt 0.450000 0.688440
vt 0.462500 0.688440
vt 0.475000 0.688440
vt 0.487500 0.688440
vt 0.500000 0.688440
vt 0.512500 0.688440
vt 0.525000 0.688440
vt 0.537500 0.688440
vt 0.550000 0.688440
vt 0.562500 0.688440
vt 0.575000 0.688440
vt 0.587500 0.688440
vt 0.600000 0.688440
vt 0.612500 0.688440
vt 0.625000 0.688440
vt 0.050000 0.750000
vt 0.000000 0.750000
vt 0.000000 0.500000
vt 0.050000 0.500000
vt 0.100000 0.750000
vt 0.100000 0.500000
vt 0.150000 0.750000
vt 0.150000 0.500000
vt 0.200000 0.750000
vt 0.200000 0.500000
vt 0.250000 0.750000
vt 0.250000 0.500000
vt 0.300000 0.750000
vt 0.300000 0.500000
vt 0.350000 0.750000
vt 0.350000 0.500000
vt 0.400000 0.750000
vt 0.400000 0.500000
vt 0.450000 0.750000
vt 0.450000 0.500000
vt 0.500000 0.750000
vt 0.500000 0.500000
vt 0.550000 0.750000
vt 0.550000 0.500000
vt 0.600000 0.750000
vt 0.600000 0.500000
vt 0.650000 0.750000
vt 0.650000 0.500000
vt 0.700000 0.750000
vt 0.700000 0.500000
vt 0.750000 0.750000
vt 0.750000 0.500000
vt 0.800000 0.750000
vt 0.800000 0.500000
vt 0.850000 0.750000
vt 0.850000 0.500000
vt 0.900000 0.750000
vt 0.900000 0.500000
vt 0.950000 0.750000
vt 0.950000 0.500000
vt 1.000000 0.750000
vt 1.000000 0.500000
vt 0.000000 0.250000
vt 0.050000 0.250000
vt 0.100000 0.250000
vt 0.150000 0.250000
vt 0.200000 0.250000
vt 0.250000 0.250000
vt 0.300000 0.250000
vt 0.350000 0.250000
vt 0.400000 0.250000
vt 0.450000 0.250000
vt 0.500000 0.250000
vt 0.550000 0.250000
vt 0.600000 0.250000
vt 0.650000 0.250000
vt 0.700000 0.250000
vt 0.750000 0.250000
vt 0.800000 0.250000
vt 0.850000 0.250000
vt 0.900000 0.250000
vt 0.950000 0.250000
vt 1.000000 0.250000
vn 0.951057 0.000000 -0.309016
vn 0.809017 0.000000 -0.587786
vn 0.809017 0.000000 -0.587786
vn 0.951057 0.000000 -0.309016
vn 0.587785 0.000000 -0.809017
vn 0.587785 0.000000 -0.809017
vn 0.309017 0.000000 -0.951056
vn 0.309017 0.000000 -0.951056
vn 0.000000 0.000000 -1.000000
vn 0.000000 0.000000 -1.000000
vn -0.309017 0.000000 -0.951056
vn -0.309017 0.000000 -0.951056
vn -0.587786 0.000000 -0.809017
vn -0.587786 0.000000 -0.809017
vn -0.809017 0.000000 -0.587785
vn -0.809017 0.000000 -0.587785
vn -0.951057 0.000000 -0.309017
vn -0.951057 0.000000 -0.309017
vn -1.000000 0.000000 0.000000
vn -1.000000 0.000000 0.000000
vn -0.951057 0.000000 0.309017
vn -0.951057 0.000000 0.309017
vn -0.809017 0.000000 0.587785
vn -0.809017 0.000000 0.587785
vn -0.587785 0.000000 0.809017
vn -0.587785 0.000000 0.809017
vn -0.309017 0.000000 0.951057
vn -0.309017 0.000000 0.951057
vn 0.000000 0.000000 1.000000
vn 0.000000 0.000000 1.000000
vn 0.309017 0.000000 0.951056
vn 0.309017 0.000000 0.951056
vn 0.587785 0.000000 0.809017
vn 0.587785 0.000000 0.809017
vn 0.809017 0.000000 0.587785
vn 0.809017 0.000000 0.587785
vn 0.951057 0.000000 0.309017
vn 0.951057 0.000000 0.309017
vn 1.000000 0.000000 0.000001
vn 1.000000 0.000000 0.000001
vn 0.000000 1.000000 0.000000
vn 0.000000 1.000000 0.000002
vn 0.000000 1.000000 0.000002
vn 0.000000 1.000000 0.000000
vn 0.000000 1.000000 -0.000001
vn 0.000000 1.000000 -0.000001
vn 0.000000 1.000000 -0.000001
vn 0.000000 1.000000 -0.000001
vn 0.000000 1.000000 -0.000000
vn 0.000000 1.000000 -0.000000
vn 0.000000 1.000000 -0.000000
vn 0.000000 1.000000 -0.000000
vn 0.000000 1.000000 0.000000
vn 0.000000 1.000000 0.000000
vn 0.000000 1.000000 0.000000
vn 0.000000 1.000000 0.000000
vn 0.000000 1.000000 0.000000
vn 0.000000 1.000000 0.000000
vn 0.000000 1.000000 0.000000
vn 0.000000 1.000000 0.000000
vn 0.000000 1.000000 0.000000
vn 0.000000 1.000000 0.000000
vn 0.000000 1.000000 -0.000002
vn 0.000000 1.000000 -0.000002
vn 0.000000 1.000000 -0.000001
vn 0.000000 1.000000 -0.000001
vn 0.000000 1.000000 0.000000
vn 0.000000 1.000000 0.000000
vn 0.000000 1.000000 -0.000001
vn 0.000000 1.000000 -0.000001
vn 0.000000 1.000000 0.000001
vn 0.000000 1.000000 0.000001
vn 0.000000 1.000000 0.000001
vn 0.000000 1.000000 0.000001
vn 0.000000 1.000000 0.000000
vn 0.000000 1.000000 0.000000
vn 0.000000 1.000000 0.000000
vn 0.000000 1.000000 0.000000
vn 0.000000 1.000000 0.000002
vn 0.000000 1.000000 0.000002
vn 0.951057 0.000000 -0.309017
vn 1.000000 0.000000 -0.000001
vn 1.000000 0.000000 -0.000001
vn 0.951057 0.000000 -0.309017
vn 0.809017 0.000000 -0.587785
vn 0.809017 0.000000 -0.587785
vn 0.587785 0.000000 -0.809017
vn 0.587785 0.000000 -0.809017
vn 0.309017 0.000000 -0.951057
vn 0.309017 0.000000 -0.951057
vn 0.000000 0.000000 -1.000000
vn 0.000000 0.000000 -1.000000
vn -0.309017 0.000000 -0.951057
vn -0.309017 0.000000 -0.951057
vn -0.587785 0.000000 -0.809017
vn -0.587785 0.000000 -0.809017
vn -0.809017 0.000000 -0.587785
vn -0.809017 0.000000 -0.587785
vn -0.951057 0.000000 -0.309017
vn -0.951057 0.000000 -0.309017
vn -1.000000 0.000000 -0.000000
vn -1.000000 0.000000 -0.000000
vn -0.951057 0.000000 0.309017
vn -0.951057 0.000000 0.309017
vn -0.809017 0.000000 0.587785
vn -0.809017 0.000000 0.587785
vn -0.587785 0.000000 0.809017
vn -0.587785 0.000000 0.809017
vn -0.309017 0.000000 0.951057
vn -0.309017 0.000000 0.951057
vn 0.000000 0.000000 1.000000
vn 0.000000 0.000000 1.000000
vn 0.309017 0.000000 0.951057
vn 0.309017 0.000000 0.951057
vn 0.587785 0.000000 0.809017
vn 0.587785 0.000000 0.809017
vn 0.809017 0.000000 0.587785
vn 0.809017 0.000000 0.587785
vn 0.951057 0.000000 0.309016
vn 0.951057 0.000000 0.309016
s 1
g polySurface2
usemtl initialShadingGroup
f 1/1/1 2/2/2 22/23/3 21/22/4
f 2/2/2 3/3/5 23/24/6 22/23/3
f 3/3/5 4/4/7 24/25/8 23/24/6
f 4/4/7 5/5/9 25/26/10 24/25/8
f 5/5/9 6/6/11 26/27/12 25/26/10
f 6/6/11 7/7/13 27/28/14 26/27/12
f 7/7/13 8/8/15 28/29/16 27/28/14
f 8/8/15 9/9/17 29/30/18 28/29/16
f 9/9/17 10/10/19 30/31/20 29/30/18
f 10/10/19 11/11/21 31/32/22 30/31/20
f 11/11/21 12/12/23 32/33/24 31/32/22
f 12/12/23 13/13/25 33/34/26 32/33/24
f 13/13/25 14/14/27 34/35/28 33/34/26
f 14/14/27 15/15/29 35/36/30 34/35/28
f 15/15/29 16/16/31 36/37/32 35/36/30
f 16/16/31 17/17/33 37/38/34 36/37/32
f 17/17/33 18/18/35 38/39/36 37/38/34
f 18/18/35 19/19/37 39/40/38 38/39/36
f 19/19/37 20/20/39 40/41/40 39/40/38
f 20/20/39 1/21/1 21/42/4 40/41/40
s 2
f 42/43/41 41/44/42 61/45/43 62/46/44
f 43/47/45 42/43/41 62/46/44 63/48/46
f 44/49/47 43/47/45 63/48/46 64/50/48
f 45/51/49 44/49/47 64/50/48 65/52/50
f 46/53/51 45/51/49 65/52/50 66/54/52
f 47/55/53 46/53/51 66/54/52 67/56/54
f 48/57/55 47/55/53 67/56/54 68/58/56
f 49/59/57 48/57/55 68/58/56 69/60/58
f 50/61/59 49/59/57 69/60/58 70/62/60
f 51/63/61 50/61/59 70/62/60 71/64/62
f 52/65/63 51/63/61 71/64/62 72/66/64
f 53/67/65 52/65/63 72/66/64 73/68/66
f 54/69/67 53/67/65 73/68/66 74/70/68
f 55/71/69 54/69/67 74/70/68 75/72/70
f 56/73/71 55/71/69 75/72/70 76/74/72
f 57/75/73 56/73/71 76/74/72 77/76/74
f 58/77/75 57/75/73 77/76/74 78/78/76
f 59/79/77 58/77/75 78/78/76 79/80/78
f 60/81/79 59/79/77 79/80/78 80/82/80
f 41/83/42 60/81/79 80/82/80 61/84/43
s 3
f 62/46/81 61/45/82 81/85/83 82/86/84
f 63/48/85 62/46/81 82/86/84 83/87/86
f 64/50/87 63/48/85 83/87/86 84/88/88
f 65/52/89 64/50/87 84/88/88 85/89/90
f 66/54/91 65/52/89 85/89/90 86/90/92
f 67/56/93 66/54/91 86/90/92 87/91/94
f 68/58/95 67/56/93 87/91/94 88/92/96
f 69/60/97 68/58/95 88/92/96 89/93/98
f 70/62/99 69/60/97 89/93/98 90/94/100
f 71/64/101 70/62/99 90/94/100 91/95/102
f 72/66/103 71/64/101 91/95/102 92/96/104
f 73/68/105 72/66/103 92/96/104 93/97/106
f 74/70/107 73/68/105 93/97/106 94/98/108
f 75/72/109 74/70/107 94/98/108 95/99/110
f 76/74/111 75/72/109 95/99/110 96/100/112
f 77/76/113 76/74/111 96/100/112 97/101/114
f 78/78/115 77/76/113 97/101/114 98/102/116
f 79/80/117 78/78/115 98/102/116 99/103/118
f 80/82/119 79/80/117 99/103/118 100/104/120
f 61/84/82 80/82/119 100/104/120 81/105/83
